<svg id="Layer_1" data-name="Layer 1" xmlns="http://www.w3.org/2000/svg" viewBox="0 0 1052.4 319.28">
    <path d="M616.94,13.5H423.14l40.16,36L400,210.14l156.23.05c41.5,0,54.89-8.92,68.19-47.76,6-25.37,3.5-42.15-18.82-52.18,32.3-3.87,39.45-26.51,47.91-49.62,10.69-33.33-5.8-47.13-36.58-47.13M568.48,134.36l-10.64,27.39A12.19,12.19,0,0,1,547.32,169H476.13l16.51-41.89h70.94C567.84,127.12,570,130.36,568.48,134.36Zm27.09-73.14-9.42,24.16a12.06,12.06,0,0,1-10.48,7.21l-69.86,0L516.73,64l-10-10.12,84,.07C594.92,54,597.11,57.21,595.57,61.22Z"
          transform="translate(-2.81 -8)" fill="#0033a0"/>
    <path d="M656.46,22.86C649.26,13,636,8,616.94,8L408.76,8l48,43.07L391.93,215.64l164.31.05c23.43,0,37.28-3,47.81-10.29,10.7-7.44,18.12-19.37,25.59-41.18l.08-.26,0-.25c3.58-15,3.94-25.73,1.15-34.75a34.17,34.17,0,0,0-11-16.33A47.83,47.83,0,0,0,642.07,97c7.42-9.27,11.65-20.88,15.75-32.12l.86-2.38.05-.1,0-.11c5.37-16.72,4.59-30-2.3-39.45m-50.85,87.39c22.32,10,24.86,26.81,18.82,52.18-13.3,38.84-26.69,47.76-68.19,47.76L400,210.14,463.3,49.55l-40.16-36h193.8c30.78,0,47.27,13.8,36.58,47.13C645.06,83.74,637.91,106.38,605.61,110.25Z"
          transform="translate(-2.81 -8)" fill="#fc6d27"/>
    <path d="M563.58,127.12H492.64L476.13,169h71.19a12.19,12.19,0,0,0,10.52-7.24l10.64-27.39c1.55-4-.64-7.24-4.9-7.24m-16.26,36.37h-63.1l12.17-30.88h66.86L552.7,159.76A6.75,6.75,0,0,1,547.32,163.49Z"
          transform="translate(-2.81 -8)" fill="#fc6d27"/>
    <path d="M590.67,54l-84-.07,10,10.12L505.81,92.56l69.86,0a12.06,12.06,0,0,0,10.48-7.21l9.42-24.16c1.54-4-.65-7.24-4.9-7.24m-15,33.12-61.85,0,9.32-24.41-3.22-3.24,70.41,0L581,83.38A6.69,6.69,0,0,1,575.67,87.1Z"
          transform="translate(-2.81 -8)" fill="#fc6d27"/>
    <path d="M2.81,283.39H24.88c5.4,0,9.22,1.35,11.74,3.81a9.7,9.7,0,0,1,2.76,7v.12c0,5-2.83,7.93-6.64,9.59,5.23,1.72,8.55,4.67,8.55,10.51v.12c0,7.38-6,11.87-16.29,11.87H2.81Zm24.83,13.28c0-2.4-1.9-3.69-5.41-3.69h-7.8v7.56h7.5c3.62,0,5.71-1.23,5.71-3.75ZM23.52,308.9H14.43v7.93h9.22c3.68,0,5.71-1.42,5.71-3.94v-.12C29.36,310.44,27.52,308.9,23.52,308.9Z"
          transform="translate(-2.81 -8)" fill="#0033a0"/>
    <path d="M56.1,305v-.13c0-12.35,10-22.37,23.23-22.37s23.11,9.9,23.11,22.25v.12c0,12.36-10,22.38-23.23,22.38S56.1,317.38,56.1,305Zm34.11,0v-.13c0-6.27-4.42-11.61-11-11.61s-10.94,5.28-10.94,11.49v.12c0,6.21,4.49,11.62,11.06,11.62S90.21,311.23,90.21,305Z"
          transform="translate(-2.81 -8)" fill="#0033a0"/>
    <path d="M120,283.39H132v43H120Z" transform="translate(-2.81 -8)" fill="#0033a0"/>
    <path d="M147.93,320l6.64-7.92a22.27,22.27,0,0,0,14,5.16c3.26,0,5-1.11,5-2.95v-.13c0-1.84-1.41-2.76-7.32-4.17C157,307.92,150,305.33,150,296.54v-.12c0-8,6.33-13.77,16.66-13.77,7.31,0,13,2,17.7,5.72l-6,8.42a21.07,21.07,0,0,0-12-4.24c-2.89,0-4.31,1.17-4.31,2.77v.12c0,2,1.48,2.83,7.5,4.18,9.84,2.15,16,5.35,16,13.4v.12c0,8.79-6.94,14-17.39,14C160.47,327.15,153.28,324.76,147.93,320Z"
          transform="translate(-2.81 -8)" fill="#0033a0"/>
    <path d="M202.76,283.39h34.6v10.08h-22.8v6.58h20.65v9.4H214.56v6.82h23.11v10.15H202.76Z"
          transform="translate(-2.81 -8)" fill="#0033a0"/>
    <path d="M279,320l6.63-7.92a22.32,22.32,0,0,0,14,5.16c3.25,0,5-1.11,5-2.95v-.13c0-1.84-1.41-2.76-7.31-4.17-9.16-2.09-16.23-4.68-16.23-13.47v-.12c0-8,6.33-13.77,16.66-13.77,7.31,0,13,2,17.7,5.72l-6,8.42a21.1,21.1,0,0,0-12-4.24c-2.89,0-4.3,1.17-4.3,2.77v.12c0,2,1.48,2.83,7.5,4.18,9.83,2.15,16,5.35,16,13.4v.12c0,8.79-6.95,14-17.39,14C291.57,327.15,284.38,324.76,279,320Z"
          transform="translate(-2.81 -8)" fill="#0033a0"/>
    <path d="M343.63,293.84H330.79V283.39h37.68v10.45H355.56v32.58H343.63Z" transform="translate(-2.81 -8)"
          fill="#0033a0"/>
    <path d="M394.16,283.09h11.49L424,326.42H411.18l-3.07-7.75H391.45l-3.07,7.75H375.9Zm10.45,26.3-4.8-12.17L395,309.39Z"
          transform="translate(-2.81 -8)" fill="#0033a0"/>
    <path d="M444.25,293.84H431.41V283.39h37.67v10.45h-12.9v32.58H444.25Z" transform="translate(-2.81 -8)"
          fill="#0033a0"/>
    <path d="M484.7,283.39h34.6v10.08H496.5v6.58h20.65v9.4H496.5v6.82h23.11v10.15H484.7Z"
          transform="translate(-2.81 -8)" fill="#0033a0"/>
    <path d="M563.74,307.55V283.39h12V307.3c0,6.21,3.13,9.16,7.93,9.16s8-2.83,8-8.85V283.39h12v23.85c0,13.83-7.92,20-20.16,20S563.74,321,563.74,307.55Z"
          transform="translate(-2.81 -8)" fill="#0033a0"/>
    <path d="M622.75,283.39h11.12l17.7,22.74V283.39h11.8v43H653l-18.44-23.61v23.61h-11.8Z"
          transform="translate(-2.81 -8)" fill="#0033a0"/>
    <path d="M683,283.39h11.93v43H683Z" transform="translate(-2.81 -8)" fill="#0033a0"/>
    <path d="M710.15,283.39h13.28l9.77,27.23L743,283.39h13l-17.45,43.33H727.54Z" transform="translate(-2.81 -8)"
          fill="#0033a0"/>
    <path d="M771,283.39h34.61v10.08H782.8v6.58h20.65v9.4H782.8v6.82h23.11v10.15H771Z" transform="translate(-2.81 -8)"
          fill="#0033a0"/>
    <path d="M824.17,283.39h20.34c6.58,0,11.13,1.72,14,4.61a13.44,13.44,0,0,1,3.81,10v.12c0,6.64-3.51,11-8.85,13.28l10.26,15h-13.7l-8.67-13h-5.29v13H824.17ZM844,304c4,0,6.39-2,6.39-5.1v-.12c0-3.44-2.52-5.16-6.45-5.16h-7.87V304Z"
          transform="translate(-2.81 -8)" fill="#0033a0"/>
    <path d="M876.48,320l6.64-7.92a22.27,22.27,0,0,0,14,5.16c3.25,0,5-1.11,5-2.95v-.13c0-1.84-1.41-2.76-7.31-4.17-9.16-2.09-16.23-4.68-16.23-13.47v-.12c0-8,6.34-13.77,16.66-13.77,7.32,0,13,2,17.7,5.72l-6,8.42a21.08,21.08,0,0,0-12-4.24c-2.88,0-4.3,1.17-4.3,2.77v.12c0,2,1.48,2.83,7.5,4.18,9.83,2.15,16,5.35,16,13.4v.12c0,8.79-6.95,14-17.39,14C889,327.15,881.82,324.76,876.48,320Z"
          transform="translate(-2.81 -8)" fill="#0033a0"/>
    <path d="M931.55,283.39h11.92v43H931.55Z" transform="translate(-2.81 -8)" fill="#0033a0"/>
    <path d="M972,293.84H959.15V283.39h37.67v10.45h-12.9v32.58H972Z" transform="translate(-2.81 -8)" fill="#0033a0"/>
    <path d="M1026.94,310.31l-16.41-26.92h13.58l8.85,15.68,8.92-15.68h13.33l-16.34,26.74v16.29h-11.93Z"
          transform="translate(-2.81 -8)" fill="#0033a0"/>
</svg>