<svg id="Layer_1" data-name="Layer 1" xmlns="http://www.w3.org/2000/svg" viewBox="0 0 164.28 39.5"><defs><style>.cls-1{fill:#525352;}.cls-2{fill:#ce532e;}</style></defs><title>icfl-logo-svg</title><g id="Group_90" data-name="Group 90"><path id="Path_45" data-name="Path 45" class="cls-1" d="M76.83,5.24c0-1.1,0-2.17-.07-3A6.77,6.77,0,0,0,76.62.79a3,3,0,0,1,.72-.1c.63,0,1.07.31,1.07.83,0,1.17-.07,2.24-.07,3.38a38.23,38.23,0,0,0,.25,5.24,4.68,4.68,0,0,1-.9.14c-.49,0-.87-.17-.87-.9Z"/><path id="Path_46" data-name="Path 46" class="cls-1" d="M84,3.31a5.85,5.85,0,0,1,.72.07c0-.69,0-1.34-.07-1.86A3.79,3.79,0,0,0,84.45,0l.07,0c.9,0,1.72.17,1.72,1,0,1.28-.06,2.55-.06,4.14,0,1.17,0,2.38.06,3.55,0,.45.14.87.63.87a1,1,0,0,0,.51-.18l.07,0a1.56,1.56,0,0,1-1.48.83c-.55,0-1.14-.21-1.14-1l-.07,0a2.33,2.33,0,0,1-2.1,1c-1.55,0-2.55-1.24-2.55-3.07a3.59,3.59,0,0,1,3.27-3.9A3.64,3.64,0,0,1,84,3.31Zm.72,4c0-.45,0-1.17,0-1.62V4.42c0-.42-.45-.49-.93-.49-1.42,0-2.18,1.49-2.18,3,0,.93.24,2.55,1.49,2.55S84.73,8.21,84.76,7.28Z"/><path id="Path_47" data-name="Path 47" class="cls-1" d="M91.35,6V5.9c0-1.1-.24-1.76-1.31-1.76a3.08,3.08,0,0,0-1.86.8l-.07-.07a2.66,2.66,0,0,1,2.48-1.63c1.9,0,2.18,1.14,2.18,2.35,0,.69,0,1.59,0,2.34v.18c0,.51,0,1.48.69,1.48a1,1,0,0,0,.52-.17l.07,0a1.56,1.56,0,0,1-1.48.83c-.56,0-1.14-.24-1.14-.93l-.07,0a2.13,2.13,0,0,1-1.83,1A1.71,1.71,0,0,1,87.7,8.71a.38.38,0,0,1,0-.15C87.69,6.62,89.9,6,91.35,6ZM90.11,9.38c.45,0,1.21-.41,1.21-.93s0-1.24,0-1.93c-.55.1-2.14.35-2.14,1.76C89.21,9.07,89.66,9.38,90.11,9.38Z"/><path id="Path_48" data-name="Path 48" class="cls-1" d="M94.63,6.45V4c0-1.21,0-3.73-.31-4l0-.07C96,0,96.11.59,96.11,2.17a11.69,11.69,0,0,1-.17,2.21H96a2.68,2.68,0,0,1,2.34-1.14c1.8,0,2,.93,2,1.87s-.07,1.9-.07,3.07c0,.58,0,1.38.69,1.38a1,1,0,0,0,.52-.18l.07,0a1.58,1.58,0,0,1-1.49.83,1.07,1.07,0,0,1-1.19-.92.76.76,0,0,1,0-.15c0-1.18,0-2,0-3.38,0-.87,0-1.73-1.17-1.73A1.76,1.76,0,0,0,96.08,6h0c0,1.21.07,2.1.07,3.38,0,.73-.38.9-.86.9a4.54,4.54,0,0,1-1-.14S94.63,9.83,94.63,6.45Z"/><path id="Path_49" data-name="Path 49" class="cls-1" d="M105.12,3.28a3.14,3.14,0,0,1,3.4,2.86c0,.1,0,.21,0,.31a3.62,3.62,0,0,1-3.34,3.89H105a3.23,3.23,0,0,1-3.42-3V7a3.49,3.49,0,0,1,3.29-3.69Zm0,6.45c1.2,0,1.79-1.52,1.79-3S106.29,3.9,105,3.9s-1.76,1.41-1.76,2.86S103.84,9.73,105.12,9.73Z"/><path id="Path_50" data-name="Path 50" class="cls-1" d="M80.9,12.32c1.52,0,3.72.58,3.72,1.55A2.51,2.51,0,0,1,84,15.18h-.11a4.08,4.08,0,0,0-3.38-2c-1.86,0-3.55,1.52-3.55,4.7,0,2.48,1.38,5,4.14,5a5.71,5.71,0,0,0,3.79-1.34l0,0c-.31,1.48-2.14,2.76-4.27,2.76a5.38,5.38,0,0,1-5.75-5,4.26,4.26,0,0,1,0-.62,6.11,6.11,0,0,1,5.84-6.38Z"/><path id="Path_51" data-name="Path 51" class="cls-1" d="M89.52,15.59a3.93,3.93,0,0,1,4.23,3.59c0,.1,0,.21,0,.31,0,2.45-1.51,4.8-4.41,4.8a4,4,0,0,1-4.24-3.81,2.16,2.16,0,0,1,0-.36,4.29,4.29,0,0,1,4.06-4.52Zm0,8c1.49,0,2.21-1.86,2.21-3.76,0-1.72-.79-3.45-2.38-3.45s-2.17,1.76-2.17,3.52S87.94,23.56,89.52,23.56Z"/><path id="Path_52" data-name="Path 52" class="cls-1" d="M95,20c0-.82,0-1.69-.07-2.48-.06-1.59-.34-1.76-.34-1.76a3.35,3.35,0,0,1,.83-.14c.76,0,1.31.38,1.31.9a2,2,0,0,1-.07.42h.07a2.87,2.87,0,0,1,2.59-1.35c1.55,0,2.2.59,2.27,1.31h.07a3,3,0,0,1,2.62-1.34c2.21,0,2.45,1.14,2.45,2.27s-.07,2.28-.07,3.7c0,.72,0,1.72.83,1.72a1.06,1.06,0,0,0,.62-.24l.07,0a1.92,1.92,0,0,1-1.86,1A1.32,1.32,0,0,1,104.82,23a.74.74,0,0,1,0-.21c0-1.41,0-2.41,0-4.07,0-1.07,0-2.14-1.41-2.14s-1.76,2.1-1.76,2.9c0,0,0,2.83,0,2.94a2,2,0,0,1-.65,1.72c-.59-.07-1.21-.14-1.21-1.28,0-1.41,0-2.48,0-4.14,0-1.06,0-2.13-1.44-2.13-.69,0-1.66.75-1.66,2.27s.07,2.59.07,4.18c0,.9-.48,1.1-1,1.1a4.67,4.67,0,0,1-1.17-.18C94.7,24,95,23,95,20Z"/><path id="Path_53" data-name="Path 53" class="cls-1" d="M109.29,20c0-.82,0-1.69-.07-2.48-.07-1.59-.34-1.76-.34-1.76a3.2,3.2,0,0,1,.82-.14c.76,0,1.31.38,1.31.9A1.52,1.52,0,0,1,111,17H111a2.89,2.89,0,0,1,2.59-1.35c1.55,0,2.21.59,2.28,1.31H116a3,3,0,0,1,2.62-1.34c2.21,0,2.45,1.14,2.45,2.27s-.07,2.28-.07,3.7c0,.72,0,1.72.83,1.72a1.11,1.11,0,0,0,.62-.24l.07,0a1.94,1.94,0,0,1-1.87,1A1.32,1.32,0,0,1,119.13,23a1.48,1.48,0,0,1,0-.21c0-1.41,0-2.41,0-4.07,0-1.07,0-2.14-1.42-2.14s-1.76,2.1-1.76,2.9c0,0,0,2.83,0,2.94a2,2,0,0,1-.66,1.72c-.58-.07-1.21-.14-1.21-1.28,0-1.41,0-2.48,0-4.14,0-1.06,0-2.13-1.45-2.13-.69,0-1.66.75-1.66,2.27s.07,2.59.07,4.18c0,.9-.48,1.1-1,1.1a4.75,4.75,0,0,1-1.18-.18C109,24,109.29,23,109.29,20Z"/><path id="Path_54" data-name="Path 54" class="cls-1" d="M123.74,20.07c0-3.76-.37-4.24-.41-4.24a3.89,3.89,0,0,1,.83-.14c.76,0,1.41.38,1.41,1.07,0,1.76-.07,3.73-.07,4.93,0,.73,0,1.73.83,1.73a1.06,1.06,0,0,0,.62-.24l.07,0a1.92,1.92,0,0,1-1.86,1,1.32,1.32,0,0,1-1.47-1.14.74.74,0,0,1,0-.21C123.68,21.94,123.74,21,123.74,20.07Zm-.27-6.9a1.1,1.1,0,0,1,2.2,0,1.1,1.1,0,1,1-2.2,0Z"/><path id="Path_55" data-name="Path 55" class="cls-1" d="M127.88,22.25H128a3.56,3.56,0,0,0,2.59,1.17c1.07,0,1.45-.55,1.45-1.13,0-1.69-4.35-1.45-4.35-4.25,0-1.58,1.52-2.45,3.07-2.45.66,0,2.52.25,2.52.93a2.21,2.21,0,0,1-.59,1.18h-.06a2.89,2.89,0,0,0-2.07-1.38,1.23,1.23,0,0,0-1.31,1.15.28.28,0,0,0,0,.09c0,1.69,4.35,1.28,4.35,4.21,0,1.65-1.62,2.52-3.17,2.52-1.1,0-2.83-.45-2.83-1.18A2.07,2.07,0,0,1,127.88,22.25Z"/><path id="Path_56" data-name="Path 56" class="cls-1" d="M134.58,22.25h.07a3.53,3.53,0,0,0,2.58,1.17c1.07,0,1.45-.55,1.45-1.13,0-1.69-4.35-1.45-4.35-4.25,0-1.58,1.52-2.45,3.07-2.45.66,0,2.52.25,2.52.93a2.27,2.27,0,0,1-.58,1.18h-.07a2.89,2.89,0,0,0-2.07-1.38,1.23,1.23,0,0,0-1.31,1.15v.09c0,1.69,4.34,1.28,4.34,4.21,0,1.65-1.62,2.52-3.17,2.52-1.1,0-2.83-.45-2.83-1.18A3.79,3.79,0,0,1,134.58,22.25Z"/><path id="Path_57" data-name="Path 57" class="cls-1" d="M142.06,20.07c0-3.76-.38-4.24-.41-4.24a3.89,3.89,0,0,1,.83-.14c.76,0,1.41.38,1.41,1.07,0,1.76-.07,3.73-.07,4.93,0,.73,0,1.73.83,1.73a1.08,1.08,0,0,0,.62-.24l.07,0a1.93,1.93,0,0,1-1.86,1A1.33,1.33,0,0,1,142,23.11a1.48,1.48,0,0,1,0-.21C142,21.94,142.06,21,142.06,20.07Zm-.27-6.9a1.1,1.1,0,1,1,1.1,1.1A1.1,1.1,0,0,1,141.79,13.17Z"/><path id="Path_58" data-name="Path 58" class="cls-1" d="M149.93,15.59a3.93,3.93,0,0,1,4.23,3.59c0,.1,0,.21,0,.31,0,2.45-1.52,4.8-4.41,4.8a4,4,0,0,1-4.25-3.81v-.36a4.34,4.34,0,0,1,4.14-4.52Zm0,8c1.48,0,2.21-1.86,2.21-3.76,0-1.72-.8-3.45-2.38-3.45s-2.18,1.76-2.18,3.52S148.38,23.56,149.93,23.56Z"/><path id="Path_59" data-name="Path 59" class="cls-1" d="M155.72,20c0-.82,0-1.69-.07-2.48-.06-1.59-.34-1.76-.34-1.76a3.89,3.89,0,0,1,.83-.14c.76,0,1.31.38,1.31.9a2,2,0,0,1-.07.42h.07a3.3,3.3,0,0,1,2.93-1.42c2.21,0,2.45,1.18,2.45,2.38s-.07,2.28-.07,3.69c0,.73,0,1.73.83,1.73a1.08,1.08,0,0,0,.62-.24l.07,0a1.93,1.93,0,0,1-1.86,1,1.32,1.32,0,0,1-1.48-1.14,1.48,1.48,0,0,1,0-.21c0-1.41,0-2.41,0-4.07,0-1.14,0-2.21-1.49-2.21a2.18,2.18,0,0,0-2,2.32v0c0,1.48.07,2.59.07,4.17,0,.9-.48,1.1-1,1.1a4.59,4.59,0,0,1-1.17-.17C155.45,24,155.72,23,155.72,20Z"/><path id="Path_60" data-name="Path 60" class="cls-1" d="M74.41,39.5a.75.75,0,0,1-.38-.1v-.07c.76-.27,1.21-.72,2-5.17.38-2,.35-2.31-.07-2.49l-.27-.1.1-.48c.48,0,.79-.1.93-.69a2.7,2.7,0,0,1,2.79-2.52c1.18,0,1.83.55,1.69,1.35l-.07,0c-.17-.41-.76-.59-1.34-.59A1.76,1.76,0,0,0,78,30.25l-.07.31-.13.56h.82a1.48,1.48,0,0,0,.66-.1c0,.07,0,.24,0,.31-.1.48-.34.58-.76.58h-.79c-.1.45-.21.9-.27,1.31-.21,1.18-.42,2.38-.69,4A2.61,2.61,0,0,1,74.41,39.5Z"/><path id="Path_61" data-name="Path 61" class="cls-1" d="M82.59,30.91a2.19,2.19,0,0,1,2.49,1.86,2.08,2.08,0,0,1,0,.86A3.88,3.88,0,0,1,81.35,37a2.28,2.28,0,0,1-2.5-2,2.36,2.36,0,0,1,.08-.88A3.79,3.79,0,0,1,82.59,30.91Zm-1,5.59c1,0,1.8-1.31,2-2.62s-.1-2.42-1.21-2.42-1.76,1.24-2,2.45S80.45,36.5,81.55,36.5Z"/><path id="Path_62" data-name="Path 62" class="cls-1" d="M86.14,34.08a8.66,8.66,0,0,0,.28-3A2.27,2.27,0,0,1,87,31c.56,0,.9.28.8.73a1.65,1.65,0,0,1-.18.41h0a2.59,2.59,0,0,1,2-1.17c.44,0,.51.21.48.45a2.71,2.71,0,0,1-.28.83l-.07,0A2.17,2.17,0,0,0,88.9,32c-.9,0-1.34.93-1.58,2.21a7,7,0,0,0-.25,2.69c-.31,0-.58.1-.82.1-.42,0-.69-.17-.59-.9A13.16,13.16,0,0,0,86.14,34.08Z"/><path id="Path_63" data-name="Path 63" class="cls-1" d="M94.15,34.12c0-1.38,0-4.18-.11-5.25a6.16,6.16,0,0,0-.17-1.76,3.27,3.27,0,0,1,.76-.13c.76,0,1.49.38,1.49,1,0,1.9-.07,3.42-.07,4.69,0,2.1,0,3.28,0,4.9l3-.06a6.33,6.33,0,0,0,2.24-.35v.45c0,1.07-.38,1.14-1.59,1.14l-5.83-.07S94.15,38.22,94.15,34.12Z"/><path id="Path_64" data-name="Path 64" class="cls-1" d="M102.74,34.7c0-3.76-.38-4.24-.42-4.24a3.35,3.35,0,0,1,.83-.14c.76,0,1.41.38,1.41,1.07,0,1.76-.07,3.72-.07,4.93,0,.73,0,1.73.83,1.73a1.06,1.06,0,0,0,.62-.24l.07,0a1.9,1.9,0,0,1-1.86,1,1.3,1.3,0,0,1-1.47-1.13.74.74,0,0,1,0-.21C102.67,36.57,102.74,35.64,102.74,34.7Zm-.28-6.9a1.12,1.12,0,0,1,1.1-1.1,1.1,1.1,0,1,1-1.1,1.1Z"/><path id="Path_65" data-name="Path 65" class="cls-1" d="M107.15,34.88V31.15c0-1.52,0-4.59-.34-4.93l0-.07c2.1,0,2.17.72,2.17,2.69a25.6,25.6,0,0,1-.17,2.62h0a2.9,2.9,0,0,1,2.7-1.31c1.9,0,3.07,1.66,3.07,3.76,0,2.86-1.59,5-4.9,5-1.38,0-2.63-.52-2.63-1.49S107.15,35.67,107.15,34.88Zm5.52-.56c0-1.51-.66-3.07-1.79-3.07a2,2,0,0,0-1.9,2c-.07.69-.07,1.49-.07,2.25,0,1.41,0,2.65,1.1,2.65C111.77,38.15,112.67,36.22,112.67,34.32Z"/><path id="Path_66" data-name="Path 66" class="cls-1" d="M116.22,34.71c0-3.35-.34-4.21-.41-4.28a3.35,3.35,0,0,1,.83-.14c.76,0,1.34.38,1.34,1.07a2.59,2.59,0,0,1-.1.62H118a3,3,0,0,1,2.52-1.69c.65,0,.83.28.83.65a3.41,3.41,0,0,1-.21,1.18l-.07,0a3.23,3.23,0,0,0-1.34-.45c-1.31,0-1.66,1.35-1.66,3.18,0,3.24.35,3.83.38,3.86a6.74,6.74,0,0,1-1.17.17c-.63,0-1-.24-1-1.27S116.22,35.64,116.22,34.71Z"/><path id="Path_67" data-name="Path 67" class="cls-1" d="M126.23,33.6v-.14c0-1.38-.31-2.14-1.59-2.14a3.76,3.76,0,0,0-2.31,1l-.07-.07a3.31,3.31,0,0,1,3.07-2c2.38,0,2.69,1.42,2.69,2.9,0,.87,0,2,0,2.87v.2c0,.66,0,1.83.83,1.83a1,1,0,0,0,.62-.24l.07,0a1.91,1.91,0,0,1-1.87,1c-.69,0-1.41-.27-1.41-1.14l-.07,0A2.58,2.58,0,0,1,123.88,39a2.09,2.09,0,0,1-2.21-2v-.22C121.71,34.33,124.4,33.64,126.23,33.6Zm-1.56,4.18c.56,0,1.49-.52,1.49-1.14s0-1.52,0-2.38c-.69.1-2.65.41-2.65,2.14C123.57,37.4,124.12,37.78,124.67,37.78Z"/><path id="Path_68" data-name="Path 68" class="cls-1" d="M130.4,34.71c0-3.35-.34-4.21-.41-4.28a3.35,3.35,0,0,1,.83-.14c.75,0,1.34.38,1.34,1.07a2.59,2.59,0,0,1-.1.62h.07a3,3,0,0,1,2.52-1.69c.65,0,.83.28.83.65a4,4,0,0,1-.21,1.18l-.07,0a3.23,3.23,0,0,0-1.35-.45c-1.31,0-1.65,1.35-1.65,3.18,0,3.24.34,3.83.38,3.86a6.71,6.71,0,0,1-1.18.17c-.62,0-1-.24-1-1.27S130.4,35.64,130.4,34.71Z"/><path id="Path_69" data-name="Path 69" class="cls-1" d="M137.06,34.7c0-3.76-.38-4.24-.41-4.24a3.28,3.28,0,0,1,.82-.14c.76,0,1.42.38,1.42,1.07,0,1.76-.07,3.72-.07,4.93,0,.73,0,1.73.83,1.73a1.11,1.11,0,0,0,.62-.24l.07,0a1.91,1.91,0,0,1-1.87,1A1.3,1.3,0,0,1,137,37.74a1.48,1.48,0,0,1,0-.21C137,36.57,137.06,35.64,137.06,34.7Zm-.28-6.9a1.12,1.12,0,0,1,1.1-1.1,1.1,1.1,0,1,1-1.1,1.1Z"/><path id="Path_70" data-name="Path 70" class="cls-1" d="M144.55,30.22c2.2,0,3.07,1.24,3.07,2.35,0,1.65-1.76,2.24-3.21,2.24a4.45,4.45,0,0,1-1.83-.45l-.07,0c0,2,.93,3.32,2.66,3.32a5,5,0,0,0,2.62-.94l.07.07a3.21,3.21,0,0,1-3.38,2.1,3.89,3.89,0,0,1-3.91-3.87,2.44,2.44,0,0,1,0-.27C140.58,32.5,142.1,30.22,144.55,30.22ZM144.06,34a1.41,1.41,0,0,0,1.55-1.26s0-.1,0-.15c0-.76-.35-1.59-1.32-1.59-1.17,0-1.82,2-1.82,2.62A3.21,3.21,0,0,0,144.06,34Z"/><path id="Path_71" data-name="Path 71" class="cls-1" d="M149.13,36.84h.07A3.56,3.56,0,0,0,151.79,38c1.07,0,1.48-.56,1.48-1.14,0-1.69-4.35-1.45-4.35-4.24,0-1.59,1.52-2.45,3.07-2.45.66,0,2.52.24,2.52.93a2.2,2.2,0,0,1-.58,1.17h-.07a2.82,2.82,0,0,0-2.07-1.38,1.23,1.23,0,0,0-1.31,1.15v.09c0,1.69,4.35,1.27,4.35,4.21,0,1.65-1.62,2.51-3.18,2.51-1.1,0-2.83-.44-2.83-1.17A2.08,2.08,0,0,1,149.13,36.84Z"/><path id="Path_72" data-name="Path 72" class="cls-2" d="M67.58,30.22c-.48.62-1.38.69-2.86.69h0l-13.84-.17.14-.35s.35-1.1.35-8.72c0-2.59-.1-8.08-.21-10.15a12.82,12.82,0,0,0-.31-3.27L50.71,8,51,7.9a4.68,4.68,0,0,1,1.52-.31c1.52,0,3.1.79,3.1,2.24,0,2,0,3.87-.1,5.49,0,1.31-.07,2.52-.07,3.62,0,4,0,6.24.07,9.21l7.9-.14a11.15,11.15,0,0,0,4.17-.65V5.11c0-3.7-.75-4.63-4.2-4.63H4.07C1.21.48,0,1.58,0,4.93V34.36c0,2.86.59,4.72,4.86,4.72H63.41c2.86,0,4.21-.93,4.21-4.65C67.58,34,67.58,30.22,67.58,30.22Zm-32,1.93a1,1,0,0,1-.72-.24l0-.14c1.48-.58,2.28-1.62,3.86-11.31.69-4.38.66-5-.13-5.42l-.56-.24.18-1.07c.93,0,1.55-.24,1.75-1.52.63-3.82,2.73-5.52,5.35-5.52,2.21,0,3.49,1.25,3.21,2.9l-.14.07a2.6,2.6,0,0,0-2.55-1.31c-1.21,0-2.93.73-3.38,3.49l-.1.69c-.07.31-.24,1.17-.24,1.17h1.58A2.36,2.36,0,0,0,45,13.46a5.46,5.46,0,0,1-.1.69c-.18,1.07-.66,1.27-1.45,1.27l-1.49,0c-.2,1-.41,1.93-.55,2.83-.41,2.55-.76,5.17-1.34,8.8C39.5,30.29,37.5,32.15,35.6,32.15ZM8.8,31.67c-1.55,0-2.35-.83-2.35-2.49V19.08c0-2.56-.06-5.18-.17-7.42A17.5,17.5,0,0,0,6,8.28L5.83,8l.31-.07A8.65,8.65,0,0,1,8,7.62c1.65,0,2.79.94,2.79,2.28s0,2.86-.07,4.21-.07,2.69-.07,4.07a100.54,100.54,0,0,0,.56,12.87l0,.24-.24,0c-.24,0-.48.09-.73.13a7,7,0,0,1-1.44.21Zm17.14-.42c-7.79,0-11.24-5.58-11.24-11.14C14.7,14,18.84,7.45,26.5,7.45c3,0,7.42,1.17,7.42,3.28a5,5,0,0,1-1.35,2.72l-.07.07h-.45l-.07-.1a7.57,7.57,0,0,0-6.24-3.69c-3.28,0-6.55,2.73-6.55,8.83,0,4.49,2.38,9.35,7.65,9.35A11,11,0,0,0,34,25.36l.17-.14.38.38,0,.14C33.74,28.81,30,31.26,26,31.26Z"/></g></svg>